<?xml version="1.0" encoding="UTF-8"?>
<svg xmlns="http://www.w3.org/2000/svg" viewBox="0 0 2071 2761">
  <g id="DrengRentegning">
    <g>
      <path id="_øre" data-name="øre" d="M469.51,1799.53c-23.73-2.67-27.33-20.76-27.84-27.68-.11-1.56,0-3.13.37-4.65,7.17-30.14,30.15-19,30.15-19l-2.68,51.33Z" style="fill: #ffdbbe;"/>
      <path d="M469.76,1799.82l-.28-.03c-23.7-2.66-27.53-20.42-28.07-27.93-.12-1.6,0-3.19.37-4.73,2.37-9.98,6.72-16.54,12.93-19.48,8.47-4.02,17.5.27,17.59.31l.16.08v.18s-2.71,51.61-2.71,51.61ZM462.68,1746.46c-2.44,0-5.12.43-7.75,1.67-6.06,2.88-10.31,9.31-12.64,19.13-.35,1.48-.47,3.02-.36,4.57.53,7.35,4.27,24.68,27.33,27.41l2.66-50.87c-.81-.36-4.58-1.9-9.23-1.9Z" style="fill: #080100;"/>
    </g>
    <path d="M469.6,1785.24c-10.63-1.19-12.27-9.09-12.48-12.43-.06-.91.03-1.85.26-2.77,1.12-4.54,3.12-7.51,5.94-8.83,3.74-1.74,7.5.06,7.66.13l-.23.48s-3.71-1.77-7.21-.13c-2.67,1.25-4.57,4.1-5.65,8.47-.22.88-.3,1.75-.24,2.61.2,3.21,1.77,10.79,12.01,11.94l-.06.53Z" style="fill: #080100;"/>
    <g>
      <path id="oere" d="M711.24,1804.09s27.24-10.48,24.3-26.48c-.1-.56-.15-1.13-.17-1.7-.11-4.65-2.14-25.59-29.8-22.74l5.67,50.91Z" style="fill: #ffdbbe;"/>
      <path d="M711.02,1804.46l-5.74-51.52.27-.03c9.72-1,17.3.82,22.52,5.41,6.78,5.97,7.51,14.97,7.58,17.58.01.58.07,1.14.16,1.65,2.95,16.03-24.19,26.67-24.46,26.78l-.32.12ZM705.87,1753.41l5.6,50.3c3.04-1.24,26.51-11.39,23.81-26.06-.1-.54-.16-1.12-.17-1.74-.06-2.56-.77-11.37-7.4-17.2-5.05-4.45-12.4-6.24-21.85-5.31Z" style="fill: #080100;"/>
    </g>
    <path d="M710.69,1790.55l-.17-.5c.13-.04,12.83-4.5,11.59-10.98-.06-.31-.09-.56-.08-.8,0-1.03-.18-4.58-2.89-7.08-2.31-2.12-5.86-2.98-10.54-2.54l-.05-.53c4.84-.45,8.53.45,10.95,2.68,2.88,2.64,3.07,6.39,3.06,7.47,0,.2.02.42.07.69.55,2.89-1.36,5.81-5.51,8.45-3.09,1.97-6.39,3.11-6.42,3.12Z" style="fill: #080100;"/>
    <g>
      <path id="arme" d="M478.5,2033.11s-13.4,60.65,39.49,96.78h172.12s34.97-26.04,27.8-96.78h-239.41Z" style="fill: #ffdbbe;"/>
      <path d="M690.12,2130.15h-172.21l-.07-.05c-27.4-18.72-36.71-44.11-39.69-62.12-3.23-19.5.06-34.79.09-34.94l.05-.21h239.86l.02.24c3.71,36.61-4.06,61.03-11.23,75.07-7.78,15.23-16.58,21.89-16.67,21.96l-.07.05h-.09ZM518.07,2129.63h171.95c.83-.65,9.1-7.32,16.46-21.75,7.12-13.94,14.83-38.18,11.19-74.5h-238.96c-.38,1.89-3.06,16.38-.04,34.55,2.97,17.88,12.21,43.1,39.4,61.7Z" style="fill: #080100;"/>
    </g>
    <g>
      <path id="ben" d="M530.97,2326.61s18.72,90.74,15.59,106.36c52.52,14.2,55.76,5.71,55.76,5.71,0,0-11.7-80.47-4.11-112.07,7.43-30.9-67.24,0-67.24,0Z" style="fill: #ffdbbe;"/>
      <path d="M592,2441.47c-7.89,0-21.63-1.78-45.51-8.24l-.24-.06.05-.24c3.09-15.39-15.4-105.35-15.59-106.25l-.04-.21.2-.08c.13-.05,13.22-5.45,27.7-9.43,19.51-5.37,32.14-5.76,37.52-1.16,2.75,2.35,3.55,6.02,2.38,10.9-7.5,31.19,3.99,111.17,4.11,111.97v.07s-.01.06-.01.06c-.07.19-1.22,2.69-10.56,2.69ZM546.86,2432.78c48.93,13.2,54.74,6.51,55.18,5.85-.44-3.08-11.5-81.25-4.09-112.08,1.12-4.67.38-8.16-2.21-10.38-12.14-10.37-60.9,9.15-64.47,10.6,1.23,5.99,18.43,90.1,15.59,106.01Z" style="fill: #080100;"/>
    </g>
    <g>
      <path id="ben-2" data-name="ben" d="M650.38,2325.59l9.03,113.86s17.14,8.89,48.4-5.86c0,0,2.63-77.56-4.7-115.12" style="fill: #ffdbbe;"/>
      <path d="M674.22,2442.37c-.82,0-1.6-.02-2.33-.05-8.16-.38-12.41-2.54-12.59-2.63l-.13-.07-9.04-114.01.53-.04,9.02,113.71c.78.36,5,2.18,12.28,2.51,7.42.34,19.61-.84,35.61-8.37.13-4,2.38-78.61-4.7-114.9l.52-.1c7.25,37.17,4.73,114.41,4.7,115.18v.16s-.15.07-.15.07c-14.62,6.89-26.1,8.54-33.71,8.54Z" style="fill: #080100;"/>
    </g>
    <g>
      <path id="shorts" d="M525.35,2173.66s-20.36,68.84-8.58,148.03c0,0,34.69,17.67,89,3.27l9.82-56.94,20.94,56.28s25.31,6.54,81.37-9.82c0,0-7.8-87.8-29.86-156.79l-162.7,15.96Z" style="fill: #004b81;"/>
      <path d="M563.84,2331.38c-9.14,0-16.91-.83-23.06-1.87-15.4-2.61-24-6.93-24.36-7.11l-.36-.19-.06-.4c-6.1-41-3.44-79.15-.13-103.93,3.58-26.86,8.68-44.27,8.73-44.44l.15-.51,163.87-16.08.2.61c21.83,68.29,29.82,156.08,29.9,156.96l.06.65-.63.18c-55.63,16.23-81.54,9.89-81.79,9.82l-.4-.1-20.06-53.91-9.4,54.54-.49.13c-15.97,4.23-30.21,5.65-42.14,5.65ZM517.5,2321.16c1.79.84,10.16,4.53,23.62,6.8,13.93,2.35,36.31,3.62,63.97-3.63l10.23-59.33,21.82,58.63c3.41.71,28.92,5.08,79.93-9.72-.77-8.14-8.93-90.44-29.57-155.36l-161.52,15.85c-1.8,6.45-19.43,72.39-8.47,146.76Z" style="fill: #080100;"/>
    </g>
    <g>
      <path id="t-shirt" d="M630.8,1927.87s64-13.96,87.12,105.23c0,0-13.9,12.87-39.64,12.36,0,0,18.54,92.68,9.78,112.24,0,0-75.17,39.64-162.7,15.96,0,0-16.99-69.51-5.66-122.02,0,0-21.62-2.57-41.19-18.54,0,0,16.26-93.42,91.02-106.44" style="fill: #bee9ff;"/>
      <path d="M582.99,2181.43c-17.88,0-37.45-2.03-57.7-7.51l-.15-.04-.04-.15c-.17-.69-16.82-69.92-5.72-121.86-2.64-.38-22.85-3.72-41.04-18.55l-.12-.1.03-.15c.04-.23,4.22-23.68,17.5-48.42,7.8-14.53,17.17-26.66,27.84-36.05,13.35-11.74,28.79-19.21,45.89-22.18l.09.52c-17,2.96-32.35,10.38-45.63,22.05-10.63,9.34-19.95,21.42-27.72,35.9-12.68,23.62-17.04,46.06-17.43,48.12,19.25,15.64,40.72,18.35,40.93,18.38l.29.03-.06.28c-10.93,50.68,4.75,118.08,5.63,121.75,45.1,12.17,86.81,7.19,113.87.86,28.39-6.63,47.02-16.09,48.4-16.8,4.44-10.13,1.55-39.95-1.67-63.23-3.5-25.31-8.12-48.54-8.17-48.77l-.06-.32h.33c13.23.27,23.26-3.08,29.34-5.94,5.95-2.8,9.38-5.68,10.02-6.24-5.08-26.14-12.57-47.91-22.25-64.69-7.84-13.59-17.14-24-27.66-30.92-10.19-6.71-19.67-8.87-25.83-9.5-6.68-.68-11,.23-11.04.24l-.11-.52s4.43-.94,11.18-.25c6.22.63,15.8,2.81,26.08,9.58,10.59,6.97,19.95,17.43,27.83,31.1,9.73,16.87,17.25,38.75,22.34,65.02l.03.14-.11.1s-3.58,3.28-10.24,6.42c-6.08,2.87-16.08,6.23-29.27,6.02,1.38,6.96,18.22,93.04,9.7,112.08l-.04.08-.08.04c-.19.1-19.16,10.01-48.59,16.89-15.01,3.51-34.52,6.6-56.6,6.6Z" style="fill: #080100;"/>
    </g>
    <g>
      <path id="Hals" d="M622.38,1887.45c-.25-1.16,2.22,23.91,12.64,45.43,0,0-.18.4-1.87,1.09-6.15,2.53-47.84,12.72-65.62-1.95,0,0,9.15-21.99,9.63-43.02.48-21.02,45.23-1.55,45.23-1.55Z" style="fill: #ffdbbe;"/>
      <path d="M596.68,1940.01c-11.12,0-22.2-1.91-29.32-7.79l-.15-.12.08-.18c.09-.22,9.14-22.19,9.61-42.92.08-3.58,1.45-6.25,4.05-7.91,4.63-2.96,13.04-2.82,24.99.4,8.06,2.18,15.09,5.1,16.36,5.64l.31.07.16.71-.08-.04c.35,3.29,3.1,25.29,12.59,44.9l.05.11-.05.11c-.05.11-.36.54-2.01,1.22-4.42,1.81-20.53,5.79-36.57,5.79ZM567.84,1931.94c17.29,14.02,57.8,4.83,65.2,1.79,1.07-.44,1.5-.75,1.66-.89-9.39-19.48-12.38-41.96-12.55-45.19-2.11-.9-30.52-12.77-40.93-6.12-2.45,1.57-3.73,4.08-3.81,7.48-.45,19.83-8.7,40.76-9.58,42.93Z" style="fill: #080100;"/>
    </g>
    <g>
      <path id="hoved" d="M697.91,1855.02c-29.69,37.61-121.56,42.48-181.41,22.08-26.1-8.9-44.33-32.69-46.27-60.2-4.55-64.37,14.19-143.38,14.19-143.38l196.82-3.94s54.44,137.61,16.68,185.44Z" style="fill: #ffdbbe;"/>
      <path d="M594.01,1889.26c-27.16,0-54.89-4.16-77.6-11.9-26.25-8.95-44.49-32.67-46.45-60.43-4.51-63.68,14.01-142.67,14.2-143.46l.05-.2h.2s197-3.94,197-3.94l.07.17c.14.34,13.72,34.89,22.51,74.83,5.17,23.47,7.69,44.18,7.51,61.56-.23,21.77-4.73,38.36-13.38,49.31l-.21-.16.21.16c-13.82,17.51-42.09,29.19-79.58,32.89-8.02.79-16.25,1.18-24.53,1.18ZM484.63,1673.78c-1.04,4.47-18.53,81.08-14.14,143.11,1.95,27.55,20.04,51.09,46.1,59.97,29.57,10.08,67.66,14.07,101.91,10.7,37.35-3.68,65.48-15.29,79.21-32.69,8.57-10.86,13.04-27.34,13.27-48.99.18-17.34-2.34-38.02-7.5-61.44-8.46-38.45-21.37-71.9-22.42-74.58l-196.43,3.93Z" style="fill: #080100;"/>
    </g>
    <path d="M677.89,2045.25c-.04-.18-4.15-17.79-10.84-31.85l.48-.23c6.72,14.12,10.84,31.78,10.88,31.96l-.52.12Z" style="fill: #080100;"/>
    <path d="M519.95,2051.66l-.53-.05c0-.1.94-10.04,6.99-29.53l.51.16c-6.03,19.43-6.96,29.32-6.97,29.42Z" style="fill: #080100;"/>
    <path d="M516.95,2213.29l-.09-.52c29.83-5.08,42.85-32.55,42.97-32.83l.48.22c-.13.28-13.25,28-43.36,33.13Z" style="fill: #080100;"/>
    <path d="M520.87,2201.66l-.19-.49c25.95-10.13,27.5-22.51,27.52-22.63l.53.05c-.05.52-1.55,12.81-27.85,23.08Z" style="fill: #080100;"/>
    <path d="M687.31,2191.02c-11.1,0-19.27-4.23-24.5-8.23-7.01-5.35-10.42-11.45-10.45-11.51l.46-.26c.03.06,3.4,6.07,10.33,11.36,6.38,4.87,17.19,10.1,32.42,7.35l.09.52c-2.95.53-5.73.77-8.35.77Z" style="fill: #080100;"/>
    <path d="M616.51,2223.6c-13.23-7.6-18.31-18.82-20.25-26.89-2.09-8.74-1.05-15.79-1.03-15.86l.52.08c-.04.28-3.98,27.86,21.02,42.22l-.26.46Z" style="fill: #080100;"/>
    <rect x="617.76" y="2178.49" width=".53" height="25.05" transform="translate(-238.72 81.87) rotate(-6.35)" style="fill: #080100;"/>
    <path d="M680.85,2357.95c-7.76,0-14.86-3.24-14.97-3.29l.22-.48c.16.07,15.9,7.24,25.89.03l.31.43c-3.44,2.48-7.53,3.31-11.45,3.31Z" style="fill: #080100;"/>
    <path d="M563.53,2357.95c-8.05,0-15.08-3.24-15.19-3.29l.22-.48c.16.07,15.76,7.24,26.87.02l.29.44c-3.81,2.48-8.13,3.3-12.2,3.3Z" style="fill: #080100;"/>
    <g>
      <path id="_øjenbryn" data-name="øjenbryn" d="M625.56,1703.41c-.28-1.26,1.15-2.2,2.17-1.41,8,6.13,31.49,21.43,56.66,12.26,30.38-11.06-46.59,43.37-58.83-10.85Z" style="fill: #986f3e;"/>
      <path d="M654.3,1728.42c-1.75,0-3.5-.11-5.22-.35-12.68-1.77-20.77-10.03-24.05-24.54h0c-.18-.8.15-1.6.83-2.04.68-.44,1.54-.4,2.18.09,26.06,19.96,47.95,15.17,56.16,12.19,6.45-2.35,7.23-1.44,7.52-1.1.18.21.42.67,0,1.43-1.92,3.51-20.11,14.32-37.43,14.32ZM626.91,1702.24c-.22,0-.39.09-.46.14-.24.16-.47.48-.37.92h0c2.57,11.39,9.58,24.08,28.01,24.08,2.35,0,4.89-.21,7.63-.65,15.8-2.55,29.34-11.83,29.19-13.41,0,0-.11-.06-.5-.06-.7,0-2.31.22-5.84,1.51-10.95,3.99-22.77,3.85-35.12-.39-10.18-3.5-18.18-8.99-22.04-11.95-.18-.14-.35-.18-.5-.18Z" style="fill: #714000;"/>
    </g>
    <g id="haar">
      <g>
        <path id="hår" d="M448.51,1752.91s-18.16-12.88,0-70.13c0,0-10.46,14.31-16.03,11.93,0,0,40.47-48.51,39.71-54.87,0,0-8.7,9.54-24.61-3.98,0,0,45.33-14.31,60.43-33.4l-16.32,5.15c14.13-9.57,27.97-18.27,50.1-23.92.48-.12.95-.27,1.41-.45,4.75-1.82,35.13-12.56,60.42-.82,0,0-44.22-20.64-65.84-19.16,0,0,60.43-5.4,95.32,18.18,0,0-19.16-27.27-38.32-36.36,0,0,37.83,7.12,71.73,46.92,0,0,62.4-11.79,80.09,60.43,0,0-32.43-56.5-63.87-50.61,0,0,109.58,56.07,52.33,171.01,0,0-81.86-37.3-100.04-103.27,0,0-25.51,53.65-95.77,58.3,0,0,35.87-18.93,30.95-21.39,0,0-33.41,20.66-67.8,21.39,0,0,26.77-7.28,30.46-13.09,0,0-34.27,14.4-58.74,16.86l-1.94,16.54-23.68,4.72Z" style="fill: #986f3e;"/>
        <path d="M735.3,1773.55l-.46-.21c-.21-.09-20.78-9.55-43.3-26.96-20.55-15.88-46.92-41.77-56.66-75.37-1.95,3.62-8.57,14.87-21.03,26.37-13.89,12.83-38.11,28.62-74.55,31.04l-2.48.16,2.2-1.16c12.05-6.36,31.16-17.49,31.13-20.26h0c-3.65,2.17-35.44,20.57-67.73,21.25l-4.3.09,4.15-1.13c.24-.07,21.53-5.9,28.42-11.12-8.16,3.26-35.57,13.72-56.08,15.88l-1.93,16.5-24.28,4.84-.19-.13c-.19-.14-4.73-3.46-7.02-13.92-3.57-16.32,1.06-37.9,5.97-54.05-2.94,3.59-8.9,10.12-13.34,10.12-.54,0-1.05-.1-1.54-.3l-.65-.28.45-.55c10.53-12.62,36.7-45.09,39.38-53.2-1.08.79-2.93,1.84-5.51,2.27-3.91.65-10.33-.06-18.7-7.18l-.73-.62.91-.29c.44-.14,43.16-13.79,59.03-31.84l-18.06,5.7,3-2.03c14.45-9.8,28.21-18.36,50.26-23.99.47-.12.93-.26,1.35-.43,4.86-1.86,27.07-9.57,49.1-4.73-14.56-5.98-39.74-15.22-54.29-14.23l-.08-1.05c.15-.01,15.38-1.34,34.67.25,17.04,1.4,40.69,5.4,58.56,16.45-5.1-6.77-20.86-26.49-36.41-33.87l-3.7-1.76,4.03.76c.1.02,9.69,1.87,23.29,8.58,12.49,6.16,31.04,17.8,48.55,38.29,2.28-.37,17-2.39,33.37,3.2,10.43,3.56,19.48,9.46,26.92,17.53,9.28,10.08,16.04,23.58,20.1,40.15l.89,3.63-1.86-3.24c-.08-.14-8.23-14.24-20.09-27.44-18.63-20.72-32.75-24.22-41.7-23.15,5.84,3.29,28.94,17.27,46.44,41.81,11.8,16.56,18.79,34.61,20.77,53.65,2.47,23.79-2.92,49.19-16.03,75.5l-.23.46ZM635.15,1668.07l.38,1.37c9.35,33.93,35.96,60.1,56.63,76.08,20.56,15.89,39.48,25.13,42.65,26.63,12.84-25.95,18.12-50.99,15.69-74.44-1.95-18.86-8.87-36.73-20.56-53.14-19.93-27.97-47.19-42.13-47.47-42.27l-1.38-.71,1.52-.29c13.05-2.44,28.34,5.6,44.22,23.26,8.6,9.56,15.25,19.6,18.33,24.52-4.08-14.79-10.43-26.95-18.93-36.18-7.31-7.94-16.21-13.75-26.46-17.25-17.48-5.98-33.03-3.16-33.18-3.13l-.3.06-.2-.23c-26.84-31.51-56.47-42.53-67.23-45.67,17.72,10.53,34.48,34.2,34.66,34.46l1.65,2.35-2.38-1.61c-25.71-17.38-65.85-18.91-84.64-18.55,22.82,3.38,55.3,18.44,55.68,18.62l-.45.96h0s0,0,0,0c-24.85-11.53-54.34-1.32-60,.84-.46.18-.96.33-1.47.46-20.34,5.19-33.59,12.91-46.89,21.8l14.47-4.57-1.07,1.35c-13.84,17.49-53.26,31.11-59.78,33.28,14.83,12.12,22.81,3.78,23.14,3.41l.78-.85.14,1.14c.73,6.19-33.28,47.39-39.31,54.64,4.4.59,11.99-8.27,14.68-11.95l1.91-2.61-.98,3.08c-5.14,16.2-10.49,39.08-6.83,56.11,1.94,9,5.64,12.59,6.47,13.3l23.06-4.59,1.94-16.58.42-.04c24.11-2.42,58.25-16.68,58.59-16.82l1.56-.65-.91,1.43c-2.87,4.52-18.67,9.73-26.46,12.07,32.26-2.26,62.76-20.91,63.08-21.1l.25-.15.26.13c.48.24.75.64.75,1.12.04,3.8-21.29,15.63-29.48,20.02,34.72-2.93,57.92-18.14,71.37-30.54,14.92-13.77,21.39-27.14,21.45-27.28l.61-1.28Z" style="fill: #724102;"/>
      </g>
      <path d="M510.03,1707.69l-.39-.98c39.94-15.9,71.79-39.99,91.47-57.39,21.33-18.86,33.37-34.16,33.49-34.31l.83.65c-.12.15-12.2,15.51-33.61,34.44-19.75,17.46-51.71,41.63-91.8,57.6Z" style="fill: #724102;"/>
      <path d="M471.05,1702.21l-.36-.99c17.58-6.43,46.11-21.19,82.24-54.98,21.62-20.22,35.89-37.92,36.03-38.09l.82.66c-.14.18-14.45,17.92-36.12,38.19-20.02,18.72-50.6,43.5-82.61,55.22Z" style="fill: #714000;"/>
      <path d="M464.34,1672.02l-.45-.95c61.06-29.07,85.73-62.57,85.97-62.91l.86.62c-.24.34-25.05,34.04-86.38,63.24Z" style="fill: #714000;"/>
      <path d="M705.29,1725.73c-31.42-20.41-45.17-63.87-45.3-64.31l1.01-.31c.13.43,13.77,43.53,44.87,63.74l-.58.89Z" style="fill: #714000;"/>
      <path d="M734.03,1720.21c-41.25-34.83-67.37-89.58-67.63-90.13l.96-.45c.26.55,26.29,55.09,67.36,89.77l-.68.81Z" style="fill: #714000;"/>
      <path d="M736.87,1688.26c-29.45-22.65-42.05-51.06-42.17-51.35l.97-.42c.12.28,12.62,28.45,41.84,50.93l-.65.84Z" style="fill: #714000;"/>
    </g>
    <path d="M613.98,1856.39c-9.06-11.88-18.75-17.81-28.81-17.57-16.52.36-28.55,17.38-28.67,17.55l-.87-.6c.12-.18,12.44-17.63,29.51-18.01,10.41-.23,20.4,5.82,29.68,17.99l-.84.64Z"/>
    <path d="M580.21,1804.46c-2.22-2.29-5.63-6.73-3.56-10.84,1.7-3.38,6.28-4.72,9.73-4.26,3.3.44,5.61,2.37,6.18,5.17l-1.04.21c-.49-2.37-2.41-3.95-5.29-4.33-3.63-.48-7.35,1.1-8.65,3.69-1.31,2.61-.11,6.03,3.38,9.62l-.76.74Z"/>
    <g id="oeje">
      <g>
        <path d="M668.25,1754.49c-1.47-11.68-19.46-.7-30.34-10.99-10.08-9.53-19.88-3.71-19.88,10.99s11.24,26.61,25.11,26.61,26.95-12.03,25.11-26.61Z" style="fill: #fff;"/>
        <path d="M643.14,1781.63c-14.14,0-25.64-12.17-25.64-27.14,0-7.72,2.72-13.49,7.28-15.46,4-1.72,8.92-.24,13.5,4.09,5.12,4.84,11.84,4.84,17.76,4.83,6.39,0,11.92,0,12.74,6.48.82,6.51-1.24,12.95-5.8,18.12-5.01,5.69-12.43,9.08-19.84,9.08ZM628.23,1739.39c-1.06,0-2.08.2-3.04.61-4.16,1.79-6.64,7.21-6.64,14.49,0,14.38,11.03,26.08,24.58,26.08,7.11,0,14.23-3.26,19.05-8.72,4.36-4.94,6.33-11.08,5.54-17.29-.7-5.56-5.31-5.55-11.69-5.55-5.82,0-13.07,0-18.49-5.12-3.12-2.95-6.38-4.5-9.32-4.5Z" style="fill: #080100;"/>
      </g>
      <g>
        <ellipse cx="637.91" cy="1761" rx="15.33" ry="17.5"/>
        <path d="M637.91,1779.03c-8.75,0-15.86-8.09-15.86-18.03s7.12-18.03,15.86-18.03,15.86,8.09,15.86,18.03-7.12,18.03-15.86,18.03ZM637.91,1744.03c-8.16,0-14.81,7.61-14.81,16.97s6.64,16.97,14.81,16.97,14.81-7.61,14.81-16.97-6.64-16.97-14.81-16.97Z" style="fill: #080100;"/>
      </g>
      <g>
        <circle cx="633.92" cy="1755.63" r="3.99" style="fill: #fff;"/>
        <path d="M633.92,1760.15c-2.49,0-4.52-2.03-4.52-4.52s2.03-4.52,4.52-4.52,4.52,2.03,4.52,4.52-2.03,4.52-4.52,4.52ZM633.92,1752.16c-1.91,0-3.46,1.55-3.46,3.46s1.55,3.46,3.46,3.46,3.46-1.55,3.46-3.46-1.55-3.46-3.46-3.46Z" style="fill: #080100;"/>
      </g>
      <g>
        <circle cx="635.02" cy="1768.28" r="2" style="fill: #fff;"/>
        <path d="M635.02,1770.81c-1.39,0-2.52-1.13-2.52-2.53s1.13-2.52,2.52-2.52,2.52,1.13,2.52,2.52-1.13,2.53-2.52,2.53ZM635.02,1766.81c-.81,0-1.47.66-1.47,1.47s.66,1.47,1.47,1.47,1.47-.66,1.47-1.47-.66-1.47-1.47-1.47Z" style="fill: #080100;"/>
      </g>
      <g>
        <path d="M618.03,1734.84s28.74,25.35,60.32,15.9" style="fill: #ffdbbe;"/>
        <path d="M663.85,1753.36c-10.83,0-20.59-3.24-27.72-6.55-11.07-5.13-18.37-11.51-18.44-11.58l.7-.79c.29.25,28.89,25.05,59.82,15.79l.3,1.01c-5,1.5-9.93,2.11-14.66,2.11Z" style="fill: #080100;"/>
      </g>
    </g>
    <g id="oeje-2" data-name="oeje">
      <g>
        <path d="M549.74,1743.12c-6.27-10.78-18.37,7.11-32.8,1.46-13.37-5.24-20.03,4.36-13.85,18.67,6.17,14.31,21.62,21.4,34.51,15.85,12.88-5.56,19.98-22.51,12.15-35.97Z" style="fill: #fff;"/>
        <path d="M528.42,1781.51c-10.54,0-20.99-6.86-25.82-18.05-3.3-7.65-3.14-14.42.44-18.12,1.77-1.83,5.96-4.44,14.09-1.25,6.79,2.66,13.02-.04,18.53-2.42,5.94-2.57,11.07-4.78,14.54,1.18h0c3.62,6.22,4.33,13.54,2.01,20.61-2.38,7.23-7.77,13.25-14.4,16.12-3.03,1.31-6.21,1.93-9.38,1.93ZM510.1,1743.66c-2.6,0-4.75.81-6.31,2.42-3.27,3.38-3.35,9.72-.23,16.96,6.05,14.02,21.22,21,33.81,15.57,6.36-2.75,11.53-8.53,13.82-15.48,2.23-6.77,1.55-13.79-1.92-19.75-3-5.15-7.28-3.3-13.21-.74-5.41,2.34-12.14,5.25-19.33,2.43-2.42-.95-4.66-1.42-6.64-1.42Z"/>
      </g>
      <g>
        <ellipse cx="533.86" cy="1759.62" rx="18.56" ry="15.51" transform="translate(-1267.62 2128.29) rotate(-84.69)"/>
        <path d="M533.36,1778.68c-.42,0-.84-.02-1.26-.06-4.28-.4-8.12-2.76-10.81-6.65-2.66-3.86-3.87-8.78-3.4-13.84.97-10.48,8.93-18.34,17.74-17.52,8.81.82,15.18,10.01,14.21,20.49h0c-.93,9.98-8.19,17.58-16.48,17.58ZM534.37,1741.61c-7.75,0-14.55,7.19-15.42,16.62-.45,4.81.7,9.48,3.22,13.14,2.5,3.63,6.07,5.83,10.03,6.2,8.23.76,15.67-6.67,16.59-16.56.92-9.9-5.02-18.57-13.25-19.34-.39-.04-.78-.05-1.16-.05Z"/>
      </g>
      <g>
        <ellipse cx="537.39" cy="1755.63" rx="4.04" ry="4.23" transform="translate(-651.52 356.52) rotate(-23.34)" style="fill: #fff;"/>
        <path d="M537.54,1760.36c-1.81,0-3.55-1.1-4.34-2.92-1.04-2.41,0-5.18,2.31-6.18,2.31-1,5.04.15,6.08,2.56.5,1.16.54,2.45.11,3.61-.43,1.17-1.29,2.09-2.42,2.57-.57.24-1.16.36-1.74.36ZM537.25,1751.95c-.45,0-.89.09-1.32.27-1.78.77-2.56,2.92-1.76,4.79.81,1.88,2.91,2.78,4.69,2.01.86-.37,1.51-1.07,1.84-1.97.34-.91.3-1.91-.09-2.82h0c-.61-1.42-1.97-2.28-3.37-2.28Z"/>
      </g>
      <g>
        <ellipse cx="530.12" cy="1766.29" rx="2.02" ry="2.12" transform="translate(-656.34 354.51) rotate(-23.34)" style="fill: #fff;"/>
        <path d="M530.19,1768.92c-.34,0-.67-.07-.99-.21-.63-.27-1.14-.77-1.41-1.42-.28-.64-.3-1.36-.06-2,.24-.66.72-1.17,1.35-1.44,1.29-.56,2.81.08,3.39,1.42h0c.28.64.3,1.36.06,2-.24.66-.72,1.17-1.35,1.44-.31.14-.65.2-.98.2ZM530.05,1764.71c-.19,0-.38.04-.56.11-.36.16-.64.45-.78.83-.14.39-.13.82.04,1.22s.47.7.86.86c.37.16.78.16,1.14,0,.36-.16.64-.45.78-.83.14-.39.13-.82-.04-1.22h0c-.26-.61-.85-.98-1.44-.98Z"/>
      </g>
      <g>
        <path d="M493.1,1743.28s39.07,14,64.44-7.86" style="fill: #ffdbbe;"/>
        <path d="M520.6,1748.22c-1.68,0-3.29-.05-4.82-.14-12.87-.76-22.76-4.26-22.85-4.3l.36-1c.1.03,9.87,3.49,22.59,4.24,11.7.69,28.37-.83,41.33-12l.69.8c-11.54,9.94-25.91,12.4-37.29,12.4Z"/>
      </g>
    </g>
    <g>
      <path id="droppe" d="M668.49,1808.95c-7.53,3.3-12.92-27.73-12.92-27.73,0,0,23.16,23.25,12.92,27.73Z" style="fill: #cef3ff;"/>
      <path d="M667.37,1809.73c-.55,0-1.1-.15-1.65-.44-6.34-3.41-10.5-26.97-10.67-27.97l-.29-1.65,1.18,1.19c.7.7,17.09,17.26,15.59,25.18-.3,1.57-1.25,2.71-2.83,3.4-.44.19-.89.29-1.34.29ZM656.42,1782.87c.44,2.26,1.32,6.44,2.54,10.77,2.35,8.34,4.86,13.42,7.26,14.71.7.38,1.37.41,2.06.11h0c1.26-.55,1.98-1.41,2.22-2.63.57-3.01-1.87-8.13-7.06-14.82-2.68-3.45-5.47-6.51-7.01-8.14Z"/>
    </g>
    <g>
      <path id="droppe-2" data-name="droppe" d="M668.64,1849.55c-7.94,2.13-8.62-29.35-8.62-29.35,0,0,19.41,26.45,8.62,29.35Z" style="fill: #cef3ff;"/>
      <path d="M667.88,1850.19c-.71,0-1.39-.24-2.03-.72-5.76-4.32-6.33-28.24-6.36-29.25l-.04-1.67.99,1.35c.59.8,14.31,19.63,11.64,27.23-.53,1.51-1.64,2.5-3.31,2.94-.3.08-.6.12-.9.12ZM668.5,1849.04l.14.51-.14-.51c1.33-.36,2.17-1.1,2.59-2.27,1.02-2.89-.63-8.32-4.76-15.71-2.13-3.82-4.43-7.25-5.71-9.1.1,2.3.34,6.57.9,11.03,1.07,8.59,2.79,14,4.97,15.64.63.48,1.29.61,2.02.42Z"/>
    </g>
    <g>
      <path id="droppe-3" data-name="droppe" d="M644.68,1822.79c-8.15-1.05,3.2-30.42,3.2-30.42,0,0,7.89,31.85-3.2,30.42Z" style="fill: #cef3ff;"/>
      <path d="M645.38,1823.37c-.25,0-.51-.02-.77-.05h0c-1.07-.14-1.9-.7-2.48-1.66-3.68-6.19,4.89-28.52,5.25-29.47l.6-1.56.4,1.63c.24.96,5.76,23.59.4,29.61-.9,1.01-2.04,1.51-3.4,1.51ZM644.74,1822.27c1.36.18,2.43-.19,3.25-1.12,2.04-2.29,2.58-7.94,1.58-16.34-.52-4.34-1.34-8.39-1.82-10.59-.78,2.17-2.18,6.21-3.36,10.55-2.28,8.36-2.75,14.01-1.35,16.35.41.68.96,1.06,1.71,1.15h0Z"/>
    </g>
    <g>
      <path id="vand" d="M509.58,1772.85s6.15-1.71,11.71,2.5c.31.24.66.43,1.04.54,1.23.36,4.07.8,7.27-1.38.6-.41,1.31-.64,2.04-.63,1.09.02,2.77.37,5.04,1.74.59.36,1.26.59,1.95.66,1.54.16,4.19.07,6.09-1.94,0,0-15.75,16.11-35.14-1.5Z" style="fill: #cef3ff;"/>
      <path d="M528.19,1781.31c-5.47,0-11.91-2.02-18.78-8.26l-.36-.32.46-.13c.06-.02,6.34-1.69,11.94,2.54.31.24.63.4.95.5,1.33.39,4,.73,7.04-1.34.66-.45,1.44-.68,2.2-.67,1.05.02,2.79.34,5.17,1.78.57.35,1.21.56,1.84.63,1.27.13,3.53.1,5.32-1.35.35-.31.54-.5.55-.51l.38.37c-.21.23-.44.43-.67.61-1.93,1.66-7.9,6.16-16.06,6.16ZM510.14,1773c5.49,4.87,14.04,9.86,24.19,6.95,3.19-.91,5.79-2.4,7.56-3.64-1.26.34-2.46.32-3.28.24-.71-.07-1.42-.31-2.06-.7-2.28-1.37-3.93-1.68-4.91-1.7-.66,0-1.32.2-1.89.58-3.22,2.2-6.08,1.83-7.49,1.41-.38-.11-.76-.31-1.12-.58-4.5-3.39-9.44-2.84-10.99-2.56Z" style="fill: #080100;"/>
    </g>
    <g>
      <path id="vand-2" data-name="vand" d="M624.97,1773.2s6.15-1.71,11.71,2.5c.31.24.66.43,1.04.54,1.23.36,4.07.8,7.27-1.38.6-.41,1.31-.64,2.04-.63,1.09.02,2.77.37,5.04,1.74.59.36,1.26.59,1.95.66,1.54.16,4.19.07,6.09-1.94,0,0-15.75,16.11-35.14-1.5Z" style="fill: #cef3ff;"/>
      <path d="M643.58,1781.65c-5.47,0-11.91-2.02-18.78-8.25l-.36-.32.46-.13c.06-.02,6.34-1.69,11.94,2.54.31.24.63.4.95.5,1.32.39,4,.73,7.04-1.34.66-.45,1.44-.68,2.19-.67,1.05.02,2.79.34,5.17,1.78.57.35,1.21.56,1.84.63,1.26.13,3.53.1,5.32-1.35.35-.31.54-.5.55-.51l.38.37c-.21.23-.44.43-.67.61-1.93,1.66-7.9,6.16-16.06,6.16ZM625.53,1773.35c5.49,4.87,14.04,9.86,24.19,6.95,3.19-.91,5.79-2.4,7.56-3.64-1.26.34-2.46.32-3.28.24-.71-.07-1.42-.31-2.06-.7-2.28-1.37-3.93-1.68-4.91-1.7-.65-.01-1.32.2-1.89.58-3.34,2.28-6.35,1.75-7.49,1.41-.38-.11-.76-.31-1.12-.58-4.5-3.39-9.44-2.84-10.99-2.56Z" style="fill: #080100;"/>
    </g>
    <g id="sko">
      <g>
        <path d="M486.59,2484.74s57.77-39.24,56.83-44.88c0,0,.85-7.18,9.51-12.77s20.99,7.86,20.99,7.86c0,0,24.28,29.89,28.39,3.74,0,0,10.48,15.58,6.73,46.27l-74.43,16.96-48.03-17.17Z" style="fill: #590000;"/>
        <path d="M534.6,2502.18l-.07-.03-48.52-17.34.43-.29c16.03-10.89,57.47-40.13,56.72-44.62v-.04s0-.04,0-.04c0-.07.23-1.87,1.54-4.38,1.2-2.3,3.57-5.66,8.09-8.58,8.74-5.65,20.81,7.35,21.32,7.9.14.18,13.45,16.41,21.76,14.17,3.16-.85,5.24-4.31,6.18-10.29l.1-.67.38.56c.11.16,10.49,16.01,6.78,46.45l-.02.18-74.69,17.01ZM487.17,2484.67l47.46,16.97,74.17-16.9c3.23-26.83-4.55-42.18-6.35-45.31-1.03,5.77-3.19,9.14-6.44,10.02-3.65.98-8.51-1.14-14.47-6.31-4.4-3.82-7.79-7.98-7.83-8.02-.02-.02-3.1-3.36-7.19-5.98-6.76-4.32-11.04-3.38-13.45-1.83-8.15,5.26-9.31,12.03-9.39,12.55.44,3.76-21.08,19.56-28.17,24.77-12.8,9.39-25.84,18.33-28.35,20.04Z" style="fill: #080100;"/>
      </g>
      <g>
        <path d="M609.05,2484.95s2.21,5.75.23,12.87c0,0-94.97,36.93-123.16,12.5,0,0-7.37-14.75-.45-24.77.28-.4.65-.71,1.08-.95,4.94-2.69,36.32-18.09,47.88,17.31l74.43-16.96Z" style="fill: #fff;"/>
        <path d="M517.1,2518.89c-12.68,0-24.06-2.21-31.16-8.37l-.06-.08c-.07-.15-7.36-15-.43-25.04.29-.42.68-.76,1.17-1.03,2.86-1.56,17.78-9.05,30.9-3.83,7.88,3.13,13.69,10.22,17.28,21.06l74.42-16.95.08.21c.02.06,2.22,5.92.24,13.03l-.04.13-.12.05c-.24.09-24.07,9.31-51.05,15.42-12.84,2.91-27.76,5.4-41.22,5.4ZM486.33,2510.15c14.49,12.5,47.08,8.43,71.87,2.82,25.93-5.88,48.96-14.63,50.85-15.35,1.67-6.12.18-11.26-.18-12.36l-74.43,16.96-.07-.23c-3.53-10.82-9.27-17.87-17.05-20.97-12.9-5.13-27.63,2.27-30.45,3.81-.41.22-.74.51-.98.86-6.56,9.5,0,23.54.45,24.46Z" style="fill: #080100;"/>
      </g>
      <path d="M536.98,2480.67c-4.69-2.7-8.77-5.33-13.48-7.68-2.84-1.42-5.78-2.58-8.64-4.02,8.62-3.47,20.04,2.72,22.12,11.69h0Z" style="fill: #fff;"/>
      <path d="M523.39,2462.03c6.42-1.76,14.78-.11,19.72,4.52,1.74,1.63,3.3,4.62,2.09,6.94-.91-2.09-2.46-3-4.32-3.93-5.74-2.66-11.94-4.1-17.49-7.53h0Z" style="fill: #fff;"/>
      <path d="M530.97,2455.39c5.95-2.29,13.67-1.77,19.18,1.51,3.68,2.08,6.58,6.72,4.53,10.86-.45-1.28-.94-2.36-1.61-3.24-2.03-2.66-4.99-3.69-8.16-4.82-4.58-1.53-9.26-2.49-13.94-4.31h0Z" style="fill: #fff;"/>
      <path d="M536.98,2449.7c5.78-3.21,13.58-3.81,19.68-.99,4.08,1.86,7.06,6.32,5.37,10.79-.57-1.26-1.13-2.36-1.83-3.24-2.14-2.65-5.18-3.49-8.53-4.23-4.81-.99-9.68-1.25-14.68-2.32h0Z" style="fill: #fff;"/>
      <path d="M558.15,2447.17c-5.74-.79-9.74-2.96-15.32-4.42,4.31-5.47,13.91-1.83,15.32,4.42h0Z" style="fill: #fff;"/>
      <path d="M548.46,2437.06c1.71-3.53,6.55-4.18,9.87-2.8,3.38,1.34,5.89,4.28,6.52,7.83-2.92-.8-5.58-2.39-8.26-3.4-2.74-1.07-4.89-1.62-8.13-1.63h0Z" style="fill: #fff;"/>
      <rect x="534.48" y="2466.39" width="49.72" height=".53" transform="translate(-1583.15 1122.42) rotate(-45.12)" style="fill: #080100;"/>
      <path d="M508.97,2507.49c-9.16,0-18.4-1.08-23.2-4.8-1.99-1.54-3.09-3.47-3.29-5.73l.53-.05c.18,2.11,1.22,3.91,3.09,5.36,4.57,3.54,14.33,5.12,28.24,4.55,10.55-.43,19.84-1.95,19.93-1.96l75.3-17.92.12.51-75.32,17.93c-.88.15-13.06,2.12-25.41,2.12Z" style="fill: #080100;"/>
      <g>
        <path d="M602.31,2438.68s-6.94,4.66-24.87.19c0,0,21.18,23.13,24.87-.19Z" style="fill: #fff;"/>
        <path d="M594.15,2449.36c-2.86,0-6.32-1.49-10.33-4.46-3.71-2.75-6.54-5.83-6.57-5.86l-.59-.65.85.21c9.19,2.29,15.4,2.13,19,1.59,3.89-.59,5.64-1.72,5.65-1.74l.5-.33-.09.6c-.93,5.88-3.06,9.36-6.34,10.34-.66.2-1.35.3-2.09.3ZM578.27,2439.34c2.45,2.48,11.53,11.11,17.81,9.22,2.97-.89,4.94-4.05,5.88-9.37-1.85.95-8.89,3.68-23.69.15Z" style="fill: #080100;"/>
      </g>
    </g>
    <g id="sko-2" data-name="sko">
      <g>
        <path d="M659.42,2439.45s-4.67,38.05-4.04,46.41c0,0,35.4,19.26,43,18.76,0,0,24.91-17.71,54.4-16.14,0,0-26.5-27.71-42.82-51.9,0,0-14.9-25.5-32.48,2.88,0,0-11.88,19.76-18.06,0Z" style="fill: #590000;"/>
        <path d="M698.08,2504.89c-8.18,0-41.4-18.02-42.82-18.8l-.13-.07v-.14c-.64-8.29,3.98-46.08,4.03-46.46l.15-1.22.37,1.17c1.67,5.36,3.91,8.24,6.64,8.56.18.02.36.03.53.03,5.14,0,10.35-8.56,10.4-8.65,5.61-9.06,11.56-13.59,17.65-13.53,4.73.06,8.64,2.96,11.08,5.38,2.64,2.61,4.19,5.25,4.21,5.27,16.12,23.88,42.52,51.57,42.79,51.85l.46.48-.67-.04c-29.06-1.55-53.99,15.92-54.24,16.09l-.06.04h-.07c-.1.01-.21.01-.32.01ZM655.63,2485.7c2.33,1.26,35.31,19.02,42.66,18.66,1.41-.98,25.6-17.41,53.85-16.18-3.58-3.79-27.41-29.25-42.4-51.46-.07-.12-6.13-10.3-14.85-10.41-5.88-.06-11.69,4.39-17.19,13.28-.22.37-5.42,8.91-10.85,8.91-.2,0-.4-.01-.6-.04-2.75-.33-5.01-2.95-6.71-7.81-.77,6.43-4.41,37.38-3.91,45.04Z" style="fill: #080100;"/>
      </g>
      <g>
        <path d="M655.18,2486.98v9.81c-.02,1.27.66,2.44,1.76,3.06,10.56,5.89,65.14,34.21,96.61,9.28.73-.58,1.2-1.42,1.3-2.34.43-4.05,1.03-14.83-2.06-18.31-2.56-2.44-24.48-27.24-53.14,9.99-.79,1.03-2.09,1.51-3.36,1.26-5.29-1.05-19.39-5.61-36.15-11.64-2.84-1.02-4.75-2.22-4.95-1.11Z" style="fill: #fff;"/>
        <path d="M721.21,2519.49c-27.68,0-56.92-15.24-64.4-19.41-1.19-.67-1.92-1.93-1.9-3.29v-9.83s0-.02,0-.02c.05-.26.17-.45.37-.56.54-.3,1.49.09,2.93.68.59.24,1.26.52,2,.78,17.11,6.15,30.95,10.61,36.11,11.63,1.18.23,2.37-.21,3.1-1.16,9.91-12.88,20.09-19.74,30.25-20.39,8.06-.51,15.76,2.83,22.88,9.96.17.17.31.31.41.41,3.56,4,2.3,17.05,2.15,18.53-.1.99-.6,1.89-1.4,2.52-9.38,7.43-20.8,10.16-32.5,10.16ZM655.44,2487.01v9.78c-.02,1.17.6,2.26,1.63,2.83,10.59,5.91,65.01,34.11,96.31,9.31.69-.54,1.11-1.31,1.2-2.16.15-1.45,1.4-14.29-2-18.1-.09-.09-.23-.23-.4-.4-7-7.02-14.56-10.32-22.47-9.81-10,.64-20.05,7.43-29.86,20.18-.86,1.11-2.25,1.63-3.62,1.36-5.18-1.03-19.05-5.49-36.19-11.65-.74-.27-1.42-.55-2.02-.79-1.11-.45-2.15-.89-2.47-.71-.02.01-.08.04-.1.17Z" style="fill: #080100;"/>
      </g>
      <path d="M701.42,2478.97c6.56-8.85,21.91-14.18,31.78-8.04-2.86.32-5.52.58-8.26,1.14-8.14,1.53-15.5,4.57-23.52,6.9h0Z" style="fill: #fff;"/>
      <path d="M704.05,2468.32c4.31-7.03,16.22-10.45,22.79-4.73-4.12.71-7.42,1.28-11.29,2.25-3.85.93-7.39,1.94-11.5,2.47h0Z" style="fill: #fff;"/>
      <path d="M694.25,2471.42c.18-5.98,3.69-11.57,8.76-14.77,5.08-3.18,12.01-3.38,17.16-.38-2.89.28-5.56.55-8.06,1.16-7.89,1.78-13.25,7.56-17.85,14h0Z" style="fill: #fff;"/>
      <path d="M687.89,2459.36c1.04-5.64,6.23-9.67,11.5-11.25,5.3-1.52,11.19-.96,16.06,1.63-3.84.66-7.62.76-11.37,1.6-6.09,1.15-11.53,3.68-16.19,8.02h0Z" style="fill: #fff;"/>
      <path d="M690.01,2449.91c3.39-7.53,14.05-11.36,21.19-6.85-3.03.54-5.52.86-8.31,1.63-4.53,1.28-8.51,3.2-12.88,5.21h0Z" style="fill: #fff;"/>
      <path d="M685.99,2442.72c2.62-8.92,14.71-11.79,21.19-5.19-2.13-.12-4.04-.3-5.89-.28-5.68-.08-10.59,2.29-15.31,5.47h0Z" style="fill: #fff;"/>
      <rect x="686.93" y="2444.02" width=".53" height="42.13" transform="translate(-1027.28 565.22) rotate(-26.49)" style="fill: #080100;"/>
      <path d="M726.31,2509.25c-1.84,0-3.75-.07-5.72-.22-12.78-.97-23.97-4.77-24.08-4.81l-41.41-14.96.18-.5,41.41,14.96c.11.04,11.25,3.82,23.96,4.78,11.68.89,27.13-.5,34.36-12.11l.45.28c-5.15,8.28-15.16,12.58-29.13,12.58Z" style="fill: #080100;"/>
      <g>
        <path d="M659.2,2436.69s14.09,4.12,19.17,1.36c0,0-12.53,24.99-18.95,1.4l-.22-2.76Z" style="fill: #fff;"/>
        <path d="M666.86,2449.85c-.15,0-.29,0-.44-.02-3.04-.3-5.48-3.77-7.26-10.3l-.26-3.2.37.11c.14.04,14.04,4.06,18.97,1.38l.74-.4-.38.75c-.24.49-5.93,11.68-11.74,11.68ZM659.49,2437.05l.19,2.39c1.71,6.25,4,9.59,6.79,9.87,4.8.48,9.92-8.16,11.3-10.69-5.12,1.94-16.09-.95-18.28-1.56Z" style="fill: #080100;"/>
      </g>
    </g>
  </g>
  <g id="SolRentegning">
    <g>
      <circle id="krop" cx="1051.75" cy="1636.49" r="76.88" style="fill: #ffe795;"/>
      <path d="M1051.75,1713.55c-20.58,0-39.93-8.01-54.49-22.57-14.55-14.55-22.57-33.9-22.57-54.49s8.02-39.93,22.57-54.49c14.55-14.55,33.9-22.57,54.49-22.57s39.93,8.01,54.49,22.57c14.55,14.55,22.57,33.9,22.57,54.49s-8.02,39.93-22.57,54.49c-14.55,14.55-33.9,22.57-54.49,22.57ZM1051.75,1559.79c-20.49,0-39.75,7.98-54.24,22.47-14.49,14.49-22.47,33.75-22.47,54.24s7.98,39.75,22.47,54.24c14.49,14.49,33.75,22.47,54.24,22.47s39.75-7.98,54.24-22.47c14.49-14.49,22.47-33.75,22.47-54.24s-7.98-39.75-22.47-54.24c-14.49-14.49-33.75-22.47-54.24-22.47Z"/>
    </g>
    <g id="oejne">
      <g>
        <ellipse cx="1029.95" cy="1624.8" rx="10.31" ry="9.81"/>
        <path d="M1029.95,1634.79c-5.78,0-10.48-4.48-10.48-9.99s4.7-9.99,10.48-9.99,10.48,4.48,10.48,9.99-4.7,9.99-10.48,9.99ZM1029.95,1615.16c-5.59,0-10.14,4.32-10.14,9.64s4.55,9.64,10.14,9.64,10.14-4.32,10.14-9.64-4.55-9.64-10.14-9.64Z"/>
      </g>
      <g>
        <circle cx="1032.86" cy="1627.71" r="2.91" style="fill: #fff;"/>
        <path d="M1032.86,1630.79c-1.7,0-3.08-1.38-3.08-3.08s1.38-3.08,3.08-3.08,3.08,1.38,3.08,3.08-1.38,3.08-3.08,3.08ZM1032.86,1624.97c-1.51,0-2.73,1.23-2.73,2.73s1.23,2.73,2.73,2.73,2.73-1.23,2.73-2.73-1.23-2.73-2.73-2.73Z"/>
      </g>
      <g>
        <circle cx="1025.79" cy="1621.13" r="1.83" style="fill: #fff;"/>
        <path d="M1025.79,1623.14c-1.11,0-2.01-.9-2.01-2.01s.9-2.01,2.01-2.01,2.01.9,2.01,2.01-.9,2.01-2.01,2.01ZM1025.79,1619.47c-.92,0-1.66.74-1.66,1.66s.74,1.66,1.66,1.66,1.66-.74,1.66-1.66-.74-1.66-1.66-1.66Z"/>
      </g>
      <g>
        <ellipse cx="1071.32" cy="1624.8" rx="10.31" ry="9.81"/>
        <path d="M1071.32,1634.79c-5.78,0-10.48-4.48-10.48-9.99s4.7-9.99,10.48-9.99,10.48,4.48,10.48,9.99-4.7,9.99-10.48,9.99ZM1071.32,1615.16c-5.59,0-10.14,4.32-10.14,9.64s4.55,9.64,10.14,9.64,10.14-4.32,10.14-9.64-4.55-9.64-10.14-9.64Z"/>
      </g>
      <g>
        <circle cx="1068.41" cy="1627.71" r="2.91" style="fill: #fff;"/>
        <path d="M1068.41,1630.79c-1.7,0-3.08-1.38-3.08-3.08s1.38-3.08,3.08-3.08,3.08,1.38,3.08,3.08-1.38,3.08-3.08,3.08ZM1068.41,1624.97c-1.51,0-2.73,1.23-2.73,2.73s1.23,2.73,2.73,2.73,2.73-1.23,2.73-2.73-1.23-2.73-2.73-2.73Z"/>
      </g>
      <g>
        <circle cx="1075.48" cy="1621.13" r="1.83" style="fill: #fff;"/>
        <path d="M1075.48,1623.14c-1.11,0-2.01-.9-2.01-2.01s.9-2.01,2.01-2.01,2.01.9,2.01,2.01-.9,2.01-2.01,2.01ZM1075.48,1619.47c-.92,0-1.66.74-1.66,1.66s.74,1.66,1.66,1.66,1.66-.74,1.66-1.66-.74-1.66-1.66-1.66Z"/>
      </g>
    </g>
    <g id="kinder">
      <g>
        <ellipse cx="1015.42" cy="1643.22" rx="10.37" ry="6.72" style="fill: #ffcaca;"/>
        <path d="M1015.42,1650.11c-5.81,0-10.54-3.09-10.54-6.9s4.73-6.9,10.54-6.9,10.55,3.09,10.55,6.9-4.73,6.9-10.55,6.9ZM1015.42,1636.67c-5.62,0-10.2,2.94-10.2,6.55s4.57,6.55,10.2,6.55,10.2-2.94,10.2-6.55-4.57-6.55-10.2-6.55Z"/>
      </g>
      <g>
        <ellipse cx="1085.85" cy="1643.22" rx="10.37" ry="6.72" style="fill: #ffcaca;"/>
        <path d="M1085.85,1650.11c-5.81,0-10.54-3.09-10.54-6.9s4.73-6.9,10.54-6.9,10.54,3.09,10.54,6.9-4.73,6.9-10.54,6.9ZM1085.85,1636.67c-5.62,0-10.2,2.94-10.2,6.55s4.57,6.55,10.2,6.55,10.2-2.94,10.2-6.55-4.57-6.55-10.2-6.55Z"/>
      </g>
    </g>
    <path d="M1049.88,1669.07c-8.65,0-14.96-8.02-15.22-8.36-.47-.61-.36-1.48.25-1.95.61-.47,1.48-.36,1.95.25.07.08,5.75,7.28,13.02,7.28,0,0,0,0,.01,0,4.23,0,8.26-2.46,12-7.28.47-.61,1.34-.72,1.95-.25.61.47.72,1.34.25,1.95-4.29,5.55-9.07,8.36-14.21,8.36Z"/>
    <g>
      <path d="M992.87,1750.86s14.92-12.57,16.67-31.68c0,0-13.15,8.83-16.67,31.68Z" style="fill: #ffe795;"/>
      <path d="M992.62,1751.29l.07-.46c1.83-11.84,6.28-19.85,9.69-24.48,3.7-5.03,7.02-7.29,7.06-7.31l.3-.2-.03.36c-1.73,18.96-16.58,31.67-16.73,31.8l-.35.3ZM1009.33,1719.55c-1.98,1.5-12.94,10.64-16.21,30.86,2.27-2.06,14.5-13.91,16.21-30.86Z"/>
    </g>
    <g>
      <path d="M1110.62,1750.86s-14.92-12.57-16.67-31.68c0,0,13.15,8.83,16.67,31.68Z" style="fill: #ffe795;"/>
      <path d="M1110.87,1751.29l-.35-.3c-.15-.13-15-12.84-16.73-31.8l-.03-.36.3.2c.13.09,13.25,9.14,16.74,31.8l.07.46ZM1094.16,1719.55c1.72,16.95,13.95,28.8,16.21,30.86-3.27-20.22-14.23-29.35-16.21-30.86Z"/>
    </g>
    <g>
      <path d="M992.87,1522.13s14.92,12.57,16.67,31.68c0,0-13.15-8.83-16.67-31.68Z" style="fill: #ffe795;"/>
      <path d="M1009.74,1554.15l-.3-.2c-.13-.09-13.25-9.14-16.74-31.8l-.07-.46.35.3c.15.13,15,12.84,16.73,31.8l.03.36ZM993.12,1522.58c3.27,20.22,14.23,29.35,16.21,30.86-1.72-16.95-13.95-28.8-16.21-30.86Z"/>
    </g>
    <g>
      <path d="M1174.25,1597.26s-19.44-1.66-34.19,10.61c0,0,15.54,3.05,34.19-10.61Z" style="fill: #ffe795;"/>
      <path d="M1144.03,1608.32c-2.51,0-3.96-.27-4-.28l-.36-.07.28-.23c14.63-12.18,34.12-10.67,34.31-10.65l.46.04-.37.27c-12.93,9.48-24.49,10.92-30.32,10.92ZM1140.47,1607.76c2.46.34,16.67,1.63,33.28-10.36-3.06-.15-20.08-.42-33.28,10.36Z"/>
    </g>
    <g>
      <path d="M929.24,1597.26s19.44-1.66,34.19,10.61c0,0-15.54,3.05-34.19-10.61Z" style="fill: #ffe795;"/>
      <path d="M959.46,1608.32c-5.83,0-17.39-1.44-30.32-10.92l-.37-.27.46-.04c.2-.02,19.68-1.53,34.31,10.65l.28.23-.36.07s-1.5.28-4,.28ZM929.74,1597.4c9.44,6.81,18.03,9.26,23.6,10.11,5.04.77,8.57.4,9.68.25-13.2-10.77-30.22-10.5-33.28-10.36Z"/>
    </g>
    <g>
      <path d="M1174.25,1675.73s-19.44,1.66-34.19-10.61c0,0,15.54-3.05,34.19,10.61Z" style="fill: #ffe795;"/>
      <path d="M1171.98,1675.97c-5.59,0-20.36-1-32.03-10.72l-.28-.23.36-.07c.16-.03,15.83-2.91,34.32,10.64l.37.27-.46.04s-.87.07-2.29.07ZM1140.47,1665.23c13.2,10.77,30.22,10.5,33.28,10.36-9.44-6.82-18.03-9.26-23.6-10.11-5.04-.77-8.57-.4-9.68-.25Z"/>
    </g>
    <g>
      <path d="M929.24,1681.22s19.44,1.66,34.19-10.61c0,0-15.54-3.05-34.19,10.61Z" style="fill: #ffe795;"/>
      <path d="M931.51,1681.46c-1.42,0-2.25-.06-2.29-.07l-.46-.04.37-.27c18.49-13.55,34.17-10.67,34.32-10.64l.36.07-.28.23c-11.67,9.72-26.44,10.72-32.03,10.72ZM929.74,1681.08c3.06.15,20.08.42,33.28-10.36-2.46-.34-16.67-1.63-33.28,10.36Z"/>
    </g>
    <g>
      <path d="M930.73,1537.97s14.11,23.1,49.52,41.55c0,0-20.86-28.46-49.52-41.55Z" style="fill: #ffe795;"/>
      <path d="M980.83,1580.02l-.66-.35c-35.05-18.26-49.45-41.39-49.59-41.62l-.3-.49.52.24c28.37,12.97,49.38,41.32,49.59,41.61l.44.6ZM931.2,1538.38c2.29,3.45,16.83,23.97,48.44,40.63-3.23-4.2-22.76-28.67-48.44-40.63Z"/>
    </g>
    <g>
      <path d="M1207.78,1638.81s-25.66,8.63-64.65,0c0,0,34.27-8.39,64.65,0Z" style="fill: #ffe795;"/>
      <path d="M1177.11,1642.79c-9.59,0-21.09-.95-34.01-3.81l-.73-.16.73-.18c.34-.08,34.67-8.3,64.73,0l.55.15-.54.18c-.17.06-11.68,3.82-30.73,3.82ZM1143.93,1638.8c34.93,7.56,59.25,1.18,63.22.01-27.36-7.35-58.05-1.16-63.22-.01Z"/>
    </g>
    <g>
      <path d="M895.71,1638.81s25.66,8.63,64.65,0c0,0-34.27-8.39-64.65,0Z" style="fill: #ffe795;"/>
      <path d="M926.38,1642.79c-19.05,0-30.56-3.76-30.73-3.82l-.54-.18.55-.15c30.07-8.3,64.39-.09,64.73,0l.73.18-.73.16c-12.92,2.86-24.42,3.81-34.01,3.81ZM896.33,1638.82c3.97,1.17,28.3,7.55,63.22-.01-5.17-1.14-35.86-7.34-63.22.01Z"/>
    </g>
    <g>
      <path d="M1172.76,1535.79s-14.11,23.1-49.52,41.55c0,0,20.86-28.46,49.52-41.55Z" style="fill: #ffe795;"/>
      <path d="M1122.66,1577.84l.44-.6c.21-.28,21.22-28.64,49.59-41.61l.52-.24-.3.49c-.14.23-14.54,23.36-49.59,41.62l-.66.35ZM1172.29,1536.2c-25.68,11.96-45.21,36.43-48.44,40.63,31.62-16.66,46.15-37.18,48.44-40.63Z"/>
    </g>
    <g>
      <path d="M1172.76,1735.02s-14.11-23.1-49.52-41.55c0,0,20.86,28.46,49.52,41.55Z" style="fill: #ffe795;"/>
      <path d="M1173.21,1735.42l-.52-.24c-28.37-12.97-49.38-41.32-49.59-41.61l-.44-.6.66.35c35.05,18.26,49.45,41.39,49.59,41.62l.3.49ZM1123.85,1693.98c3.23,4.2,22.76,28.67,48.44,40.63-2.29-3.45-16.83-23.97-48.44-40.63Z"/>
    </g>
    <g>
      <path d="M1110.62,1522.13s-14.92,12.57-16.67,31.68c0,0,13.15-8.83,16.67-31.68Z" style="fill: #ffe795;"/>
      <path d="M1093.75,1554.15l.03-.36c1.73-18.96,16.58-31.67,16.73-31.8l.35-.3-.07.46c-1.83,11.84-6.28,19.85-9.69,24.48-3.7,5.03-7.02,7.29-7.06,7.31l-.3.2ZM1110.38,1522.58c-2.27,2.06-14.5,13.91-16.21,30.86,1.98-1.5,12.94-10.64,16.21-30.86Z"/>
    </g>
    <g>
      <path d="M1049.43,1480.46s-8.63,25.66,0,64.65c0,0,8.39-34.27,0-64.65Z" style="fill: #ffe795;"/>
      <path d="M1049.42,1545.87l-.16-.73c-8.54-38.58-.08-64.48,0-64.74l.18-.54.15.55c8.3,30.07.08,64.39,0,64.73l-.18.73ZM1049.42,1481.08c-1.17,3.97-7.55,28.3.01,63.22,1.14-5.17,7.34-35.86-.01-63.22Z"/>
    </g>
    <g>
      <path d="M1049.43,1792.53s-8.63-25.66,0-64.65c0,0,8.39,34.27,0,64.65Z" style="fill: #ffe795;"/>
      <path d="M1049.45,1793.13l-.18-.54c-.09-.26-8.54-26.15,0-64.74l.16-.73.18.73c.08.34,8.3,34.67,0,64.73l-.15.55ZM1049.44,1728.68c-7.56,34.93-1.18,59.25-.01,63.22,7.35-27.36,1.16-58.05.01-63.22Z"/>
    </g>
    <g>
      <path d="M930.73,1537.97s14.11,23.1,49.52,41.55c0,0-20.86-28.46-49.52-41.55Z" style="fill: #ffe795;"/>
      <path d="M980.83,1580.02l-.66-.35c-35.05-18.26-49.45-41.39-49.59-41.62l-.3-.49.52.24c28.37,12.97,49.38,41.32,49.59,41.61l.44.6ZM931.2,1538.38c2.29,3.45,16.83,23.97,48.44,40.63-3.23-4.2-22.76-28.67-48.44-40.63Z"/>
    </g>
    <g>
      <path d="M934.7,1739.75s14.11-23.1,49.52-41.55c0,0-20.86,28.46-49.52,41.55Z" style="fill: #ffe795;"/>
      <path d="M934.25,1740.15l.3-.49c.14-.23,14.54-23.36,49.59-41.62l.66-.35-.44.6c-.21.28-21.22,28.64-49.59,41.61l-.52.24ZM983.61,1698.72c-31.62,16.66-46.15,37.18-48.44,40.63,25.68-11.96,45.21-36.43,48.44-40.63Z"/>
    </g>
  </g>
  <g id="IsRentegning">
    <g id="iskugle1">
      <g>
        <path d="M862.62,2433.56c-6.34,0-8.82,3.34-7.87,7.61,2.42,10.83,49.16.1,74.18,1.36-8.48-26.39,13.02-11.52,13.02-36.38,0-15.88,38.15-14.39,22.1-22.4-5.56-2.77-9.46-11.29-16.1-12.47-4.2-.75-10.33,7.8-14.83,7.8-18.25,0-60.51,23.14-62.93,35.22-13.02-1.48-21.06,5.16-21.19,12.53-.05,2.8,2.42,6.74,13.62,6.74Z" style="fill: #ffbace;"/>
        <path d="M870.23,2446.3c-8.73,0-14.87-1.22-15.73-5.08-.47-2.09-.13-3.92.98-5.3.86-1.07,2.14-1.82,3.8-2.24-4.24-.35-7.26-1.42-9-3.19-1.3-1.32-1.55-2.73-1.53-3.68.06-3.18,1.55-6.2,4.2-8.52,4.01-3.52,10.06-5.03,17.05-4.28,2.87-11.99,44.38-35.19,63.13-35.19,2.08,0,4.63-1.99,7.1-3.92,2.82-2.21,5.48-4.29,7.78-3.88,3.92.7,6.88,3.87,9.75,6.94,2.11,2.26,4.11,4.4,6.42,5.55,2.86,1.43,4.15,2.63,4.08,3.78-.12,1.82-3.53,3-8.26,4.63-7.5,2.59-17.78,6.15-17.78,14.22,0,11.83-4.8,14.76-9.03,17.35-4.71,2.88-8.44,5.16-4,18.95l.11.35-.37-.02c-9.08-.46-21.1.68-32.72,1.77-9.43.89-18.62,1.76-25.97,1.76ZM862.62,2433.81c-3.14,0-5.48.84-6.75,2.42-1.01,1.26-1.31,2.94-.88,4.87,1.49,6.67,20.76,4.86,41.16,2.93,11.48-1.08,23.35-2.2,32.42-1.79-4.38-13.86-.34-16.34,4.33-19.19,4.12-2.52,8.78-5.37,8.78-16.92,0-8.44,10.47-12.05,18.12-14.7,4.2-1.45,7.82-2.7,7.92-4.19.06-.9-1.22-2.01-3.8-3.29-2.39-1.19-4.41-3.36-6.56-5.66-2.81-3.01-5.72-6.12-9.47-6.79-2.06-.37-4.76,1.74-7.38,3.78-2.53,1.98-5.15,4.02-7.41,4.02-8.36,0-22.99,5.12-37.28,13.05-14.57,8.08-24.31,16.5-25.4,21.97l-.05.23-.23-.03c-6.94-.79-12.94.68-16.89,4.14-2.54,2.22-3.97,5.12-4.03,8.15-.02.85.21,2.12,1.39,3.32,1.42,1.45,4.65,3.17,11.98,3.17v.51Z"/>
      </g>
      <g>
        <path d="M861.71,2417.34s-13.62,10.17,3.33,9.47" style="fill: #ffbace;"/>
        <path d="M863.43,2427.1c-4.16,0-6.47-.77-7.02-2.35-1.05-2.95,4.9-7.43,5.15-7.62.11-.08.27-.06.35.05.08.11.06.27-.05.35-.06.04-5.9,4.45-4.98,7.05.53,1.49,3.35,2.17,8.15,1.97.13,0,.26.1.26.24,0,.14-.1.26-.24.26-.57.02-1.11.04-1.62.04Z"/>
      </g>
      <g>
        <path d="M869.89,2433.56s-13.32,7.1,10.29,10.43" style="fill: #ffbace;"/>
        <path d="M880.18,2444.24s-.02,0-.04,0c-8.97-1.26-13.75-3.24-14.22-5.88-.47-2.69,3.66-4.92,3.84-5.02.12-.07.28-.02.34.1.07.12.02.28-.1.34-.04.02-3.99,2.16-3.58,4.48.29,1.65,2.92,3.94,13.79,5.47.14.02.23.15.22.29-.02.13-.13.22-.25.22Z"/>
      </g>
      <g>
        <path d="M870.19,2414.28s-3.03,9.42,0,13.96" style="fill: #ffbace;"/>
        <path d="M870.19,2428.49c-.08,0-.16-.04-.21-.11-3.06-4.59-.16-13.79-.03-14.17.04-.13.19-.21.32-.16.13.04.21.18.16.32-.03.09-2.96,9.35-.03,13.74.08.12.05.27-.07.35-.04.03-.09.04-.14.04Z"/>
      </g>
      <g>
        <path d="M871.1,2422.1s.91,6.93,9.08,4.72c0,0,3.03-2.51,4.24,1.42,0,0,.61,6.39,11.2,1.38" style="fill: #ffbace;"/>
        <path d="M888.84,2431.79c-1.05,0-1.96-.21-2.71-.64-1.67-.95-1.93-2.62-1.96-2.86-.34-1.09-.85-1.75-1.52-1.95-1.09-.33-2.3.65-2.31.66l-.09.05c-2.76.75-5.01.55-6.7-.57-2.31-1.54-2.69-4.24-2.7-4.36-.02-.14.08-.26.22-.28.14-.02.26.08.28.22,0,.03.37,2.6,2.49,4.01,1.55,1.03,3.65,1.21,6.23.52.25-.2,1.5-1.09,2.73-.72.84.25,1.47,1.03,1.86,2.3v.05s.19,1.64,1.73,2.51c1.88,1.06,5.04.6,9.13-1.33.12-.06.28,0,.34.12.06.13,0,.28-.12.34-2.74,1.3-5.05,1.95-6.89,1.95Z"/>
      </g>
      <g>
        <path d="M887.45,2415.83s1.82,12.41,12.41,1.51c0,0,6.06-3.33,8.63,0" style="fill: #ffbace;"/>
        <path d="M892.42,2422.08c-.44,0-.85-.06-1.25-.19-3.2-1.04-3.94-5.82-3.97-6.02-.02-.14.08-.27.21-.29.14-.02.27.07.29.21,0,.05.72,4.67,3.62,5.61,2.14.69,4.95-.73,8.36-4.24l.06-.05c.26-.14,6.28-3.39,8.95.07.09.11.07.27-.05.35s-.27.07-.35-.05c-2.32-3-7.81-.2-8.28.05-2.93,3.01-5.48,4.53-7.6,4.53Z"/>
      </g>
    </g>
    <g id="isvaffel">
      <g>
        <path d="M883.52,2409.35l-23.91-116.44,93.4,79.02s-25.66,30.51-69.49,37.42c-.91.14,2.7-.43,0,0Z" style="fill: #ffe795;"/>
        <path d="M883.32,2409.63v-.02c-.1-.01-.18-.06-.2-.2-.02-.12-.03-.18.11-.24l-24.01-116.94,94.15,79.65-.16.19c-.26.3-25.82,30.19-68.62,37.35h0s-.84.14-.84.14c-.06,0-.12.02-.18.03l-.24.04ZM860,2293.57l23.72,115.49c41.29-6.6,66.66-34.52,68.94-37.11l-92.65-78.38Z"/>
      </g>
      <path d="M870.08,2344.16s-.02,0-.03,0c-.14-.01-.24-.14-.23-.28l3.96-38.8c.01-.14.14-.24.28-.23.14.01.24.14.23.28l-3.96,38.8c-.01.13-.12.23-.25.23Z"/>
      <path d="M934.09,2388.72s-.04,0-.06,0l-58.04-14.43,9.14-59.61c.02-.14.15-.23.29-.21.14.02.23.15.21.29l-9.07,59.15,57.59,14.32c.14.03.22.17.18.31-.03.11-.13.19-.25.19Z"/>
      <path d="M881.52,2399.86s-.04,0-.05,0c-.14-.03-.22-.16-.19-.3l16.23-74.45c.03-.14.17-.22.3-.19.14.03.22.16.19.3l-16.23,74.45c-.03.12-.13.2-.25.2Z"/>
      <path d="M892.26,2407.86s-.04,0-.06,0c-.14-.03-.22-.17-.19-.3l17.3-72.45c.03-.14.17-.22.3-.19.14.03.22.17.19.3l-17.3,72.45c-.03.12-.13.19-.25.19Z"/>
      <path d="M908.32,2402.76s-.04,0-.05,0c-.14-.03-.22-.16-.19-.3l12.65-57.69c.03-.14.16-.22.3-.19.14.03.22.16.19.3l-12.65,57.69c-.03.12-.13.2-.25.2Z"/>
      <path d="M915.78,2399.48s-.04,0-.06,0l-36.2-9.04c-.14-.03-.22-.17-.18-.31.03-.14.17-.22.31-.18l36.2,9.04c.14.03.22.17.18.31-.03.11-.13.19-.25.19Z"/>
      <path d="M949.52,2375.87s-.04,0-.06,0l-76.72-18.47c-.14-.03-.22-.17-.19-.3.03-.13.17-.22.3-.19l76.72,18.47c.14.03.22.17.19.3-.03.12-.13.19-.25.19Z"/>
      <path d="M925.47,2394.31s-.03,0-.05,0c-.14-.03-.22-.16-.2-.3l7.86-38.52-64.68-19.19c-.13-.04-.21-.18-.17-.31.04-.13.18-.21.31-.17l65.13,19.32-.05.23-7.9,38.75c-.02.12-.13.2-.25.2Z"/>
      <path d="M905.06,2331.61s-.06,0-.09-.02l-40.89-16.2c-.13-.05-.19-.2-.14-.33.05-.13.2-.19.33-.14l40.89,16.2c.13.05.19.2.14.33-.04.1-.13.16-.23.16Z"/>
      <g>
        <line x1="943.9" y1="2364.21" x2="941.09" y2="2383.17" style="fill: #ffe795;"/>
        <path d="M941.09,2383.42s-.03,0-.04,0c-.14-.02-.23-.15-.21-.29l2.81-18.96c.02-.14.15-.23.29-.21.14.02.23.15.21.29l-2.81,18.96c-.02.13-.13.22-.25.22Z"/>
      </g>
    </g>
    <g id="iskugle2">
      <g>
        <path d="M1001.82,2422.65c16.14,10.64,4.78,11.21,10.27,14.15,40.52,5.28,45.23,25.63,8.12,21.07-2.38-.29-4.76.55-6.47,2.24-39.65,39.38-36.35,15.9-64.23,14.03-25.5,9.03-25.22-5.61-28.04-6.27-.34-.08-.65-.28-.94-.48-4.92-3.39-50.75-8.97-52.08-16.09-.73-3.91,5.02-9.84,24.17-7.62,1.93.22,3.88-.15,5.57-1.09,8.62-4.8,16.44-11.5,16.44-13.24,0-21.8,24.6-46.18,47.15-46.18s30.48,14.29,40.02,39.48Z" style="fill: #dafff0;"/>
        <path d="M979.69,2483.06c-4.03,0-7.46-1.57-11.46-3.39-4.83-2.2-10.31-4.7-18.68-5.27-20.05,7.09-24.3-.34-26.58-4.34-.58-1.02-1.04-1.82-1.55-1.94-.38-.09-.7-.3-1.02-.52-1.78-1.23-9.22-2.78-17.84-4.59-15.69-3.29-33.48-7.01-34.34-11.67-.26-1.38.25-2.84,1.43-4.1,4.93-5.28,17.74-4.42,23.01-3.81,1.9.22,3.78-.15,5.42-1.06,8.85-4.93,16.31-11.5,16.31-13.02,0-22.13,24.81-46.43,47.41-46.43,10.79,0,18.76,3.3,25.08,10.38,5.92,6.64,10.19,16.09,15.15,29.19,10.34,6.83,9.46,9.65,8.87,11.52-.31.99-.5,1.59,1.27,2.56,22.72,2.97,34.23,10.57,33.51,16.21-.64,5.07-10.65,7.18-25.5,5.35-2.27-.28-4.61.53-6.26,2.16-17.84,17.71-27,22.77-34.24,22.77ZM949.49,2473.88h.05c8.49.57,14.03,3.1,18.91,5.32,10.99,5.01,17.62,8.04,45.13-19.28,1.76-1.74,4.25-2.61,6.67-2.31,17.67,2.17,24.47-1.29,24.93-4.91.69-5.48-11.5-12.84-33.12-15.66l-.09-.03c-2.19-1.17-1.9-2.1-1.56-3.17.54-1.73,1.36-4.33-8.73-10.99l-.07-.04-.03-.08c-8.99-23.75-16.62-39.32-39.79-39.32s-46.9,24.04-46.9,45.93c0,2.05-8.52,8.97-16.57,13.46-1.74.97-3.72,1.36-5.72,1.12-5.2-.6-17.82-1.46-22.59,3.65-1.07,1.14-1.53,2.45-1.3,3.66.81,4.32,19.96,8.34,33.95,11.26,8.67,1.82,16.16,3.38,18.02,4.67.28.19.55.37.85.44.73.17,1.21,1.02,1.88,2.18,2.21,3.87,6.33,11.07,26.02,4.09l.05-.02Z"/>
      </g>
      <g>
        <path d="M898.21,2442.59s3.09,5.6,18.54,7.04c1.29.12,2.59.03,3.84-.31,3.78-1.02,13.93-2.91,25.36,1.98" style="fill: #dafff0;"/>
        <path d="M945.94,2451.55s-.07,0-.1-.02c-11.34-4.85-21.4-2.99-25.2-1.97-1.25.34-2.57.44-3.92.32-15.4-1.43-18.6-6.93-18.73-7.17-.07-.12-.02-.27.1-.34.12-.07.28-.02.34.1.03.05,3.26,5.51,18.34,6.91,1.29.12,2.55.02,3.75-.3,3.85-1.04,14.04-2.92,25.53,1.99.13.05.19.2.13.33-.04.1-.13.15-.23.15Z"/>
      </g>
      <g>
        <path d="M1012.1,2436.8s-.64,18.81-21.07,12.91c-.89-.26-1.67-.76-2.39-1.34s-2.86-.72-8.85,4.32c-1.62,1.36-3.73,1.98-5.82,1.71s-4.79-.98-8.14-2.66" style="fill: #dafff0;"/>
        <path d="M974.95,2454.71c-.34,0-.67-.02-1.01-.07-2.59-.34-5.36-1.25-8.22-2.69-.12-.06-.17-.21-.11-.34.06-.12.21-.17.34-.11,2.81,1.42,5.52,2.3,8.06,2.64,2.02.27,4.07-.33,5.63-1.65,5.89-4.96,8.23-5.09,9.17-4.33.8.65,1.55,1.08,2.3,1.29,6.38,1.84,11.45,1.44,15.07-1.18,5.35-3.88,5.67-11.41,5.68-11.49,0-.14.13-.23.26-.24.14,0,.25.12.24.26,0,.08-.33,7.85-5.88,11.88-3.75,2.72-8.97,3.15-15.51,1.26-.81-.24-1.63-.69-2.48-1.39-.52-.43-2.39-.85-8.52,4.32-1.41,1.19-3.19,1.83-5.01,1.83Z"/>
      </g>
      <g>
        <path d="M991,2399.23s-10.67,25.62-23.51,8.38" style="fill: #dafff0;"/>
        <path d="M976.64,2413.83c-3.21,0-6.35-2.04-9.36-6.07-.08-.11-.06-.27.05-.35.11-.08.27-.06.35.05,3.18,4.27,6.49,6.23,9.83,5.81,7.67-.95,13.19-14,13.25-14.13.05-.13.2-.19.33-.14.13.05.19.2.14.33-.01.03-1.42,3.39-3.78,6.82-2.19,3.19-5.69,7.1-9.87,7.62-.32.04-.63.06-.94.06Z"/>
      </g>
      <g>
        <path d="M972.46,2435.97s-27.18,8.32-26.62-1.85c.04-.72.04-1.44-.08-2.15-.54-3.36-2.57-11.3-8.94-2.61" style="fill: #dafff0;"/>
        <path d="M954.23,2439.43c-2.93,0-5.51-.45-7.07-1.67-1.13-.88-1.66-2.12-1.57-3.67.05-.85.02-1.5-.07-2.1-.28-1.72-1.15-5.77-3.24-6.28-1.4-.33-3.16.93-5.25,3.78-.08.11-.24.14-.35.05-.11-.08-.14-.24-.05-.35,2.21-3.02,4.16-4.36,5.77-3.97,2.3.55,3.26,4.43,3.62,6.69.1.64.13,1.32.08,2.2-.08,1.39.37,2.45,1.38,3.24,5.43,4.25,24.72-1.58,24.92-1.64.14-.04.27.04.32.17.04.13-.03.27-.17.32-.58.18-10.65,3.22-18.31,3.22Z"/>
      </g>
    </g>
  </g>
  <g id="hotspots">
    <g id="hotspotHoved">
      <circle id="hotspotHoved" data-name="hotspotHoved" cx="441.89" cy="1893.98" r="42.06" style="fill: #ed1c24;"/>
      <path d="M441.89,1936.25c-23.31,0-42.27-18.96-42.27-42.27s18.96-42.27,42.27-42.27,42.27,18.96,42.27,42.27-18.96,42.27-42.27,42.27ZM441.89,1852.13c-23.08,0-41.85,18.77-41.85,41.85s18.77,41.85,41.85,41.85,41.85-18.77,41.85-41.85-18.77-41.85-41.85-41.85Z"/>
    </g>
    <g id="hotspotIs">
      <circle id="hotspotIs" data-name="hotspotHoved" cx="981.02" cy="2303.27" r="39.98" style="fill: #ed1c24;"/>
      <path d="M981.02,2343.45c-22.16,0-40.19-18.03-40.19-40.19s18.03-40.19,40.19-40.19,40.19,18.03,40.19,40.19-18.03,40.19-40.19,40.19ZM981.02,2263.48c-21.94,0-39.78,17.85-39.78,39.78s17.85,39.78,39.78,39.78,39.78-17.85,39.78-39.78-17.85-39.78-39.78-39.78Z"/>
    </g>
    <g id="hotspotSol">
      <circle id="hotspotSol" data-name="hotspotHoved" cx="1110.87" cy="1813.27" r="41.26" style="fill: #ed1c24;"/>
      <path d="M1110.87,1854.74c-22.87,0-41.47-18.6-41.47-41.47s18.6-41.47,41.47-41.47,41.47,18.6,41.47,41.47-18.6,41.47-41.47,41.47ZM1110.87,1772.21c-22.64,0-41.06,18.42-41.06,41.06s18.42,41.06,41.06,41.06,41.06-18.42,41.06-41.06-18.42-41.06-41.06-41.06Z"/>
    </g>
  </g>
</svg>